<svg width="139" height="139" viewBox="0 0 139 139" fill="none" xmlns="http://www.w3.org/2000/svg">
<ellipse cx="51.5" cy="49" rx="46.5" ry="44" fill="#C4C4C4"/>
<path d="M32.7474 68.5235C30.1341 68.5235 28 66.3894 28 63.7761V34.7474C28 32.1341 30.1341 30 32.7474 30C35.3606 30 37.4948 32.1341 37.4948 34.7474V63.7761C37.4948 66.3894 35.3824 68.5235 32.7474 68.5235Z" fill="black"/>
<path d="M53 68.5235C50.3868 68.5235 48.2526 66.3894 48.2526 63.7761V41.4982C48.2526 38.885 50.3868 36.7509 53 36.7509C55.6133 36.7509 57.7474 38.885 57.7474 41.4982V63.7761C57.7474 66.3894 55.6133 68.5235 53 68.5235Z" fill="black"/>
<path d="M73.2526 68.5235C70.6394 68.5235 68.5052 66.3894 68.5052 63.7761V52.6481C68.5052 50.0348 70.6394 47.9007 73.2526 47.9007C75.8658 47.9007 78 50.0348 78 52.6481V63.7761C78 66.3894 75.8658 68.5235 73.2526 68.5235Z" fill="black"/>
<path opacity="0.8" d="M99.2482 87.3385H92.8964L90.5147 84.9562C98.4543 76.2227 103.218 64.3131 103.218 51.6088C103.218 23.0255 80.1922 0 51.6088 0C23.0255 0 0 23.0255 0 51.6088C0 80.1922 23.0255 103.218 51.6088 103.218C64.3131 103.218 76.2227 98.4543 84.9562 90.5141L87.3385 92.8958V99.2476L127.038 138.947L138.947 127.038L99.2482 87.3385ZM51.6088 87.3385C31.7596 87.3385 15.8797 71.4587 15.8797 51.6088C15.8797 31.7596 31.7596 15.8798 51.6088 15.8798C71.4587 15.8798 87.3385 31.7596 87.3385 51.6088C87.3385 71.4587 71.4587 87.3385 51.6088 87.3385Z" fill="black"/>
</svg>
